<?xml version='1.0' encoding='utf-8'?>
<svg xmlns:ns0="http://www.w3.org/2000/svg" xmlns="http://www.w3.org/2000/svg" viewBox="0 0 74.2 86.05"><ns0:path d="M11.35 18.07l-2.96.04-7.07 4.11v1.82l10.02-5.98zM8.99 38.74l-.55 3.6 17.66.76-7.77-10.33-9.34 5.98zm7.75-6.56l-6.56-1.33-.93 6.13 7.48-4.8zM13.8 19.51l-3.31 10.04 7 1.44L13.8 19.5zM1.32 29.38h7.84l3.47-10.53L1.32 25.6v3.78zm4.61 12.93l-4.61-4.07v4.11l4.61-.04zm-4.61-5.84l5.87 5.2 1.66-10.96H1.32v5.76zm39.21 46.15l-7.24-.22 3.82 2.22 3.42-2zM29.45 66.09l10.44-10.16-20.62-.09 10.18 10.24zm28.04 1.42l11.55-10.76-25.59-.76L57.49 67.5zm8.72.02l3.02-9.16-9.98 9.31 6.95-.16zM4.94 55.73l1.17.29-.93-2.04-.24 1.76zm30.44-1.16l-11.85-2.64-3.75 2.58 15.61.07zM8.14 43.64l-2.6 7.98 1.99 4.33 15.01-11.69-14.39-.62zM1.32 57.42l2.27-1.56.6-4.31v-.04l.02-.07 2.54-7.82-5.43.07v13.73zm21.57-6.67l3.49-6.33-1.79-.07L9.78 55.86l7.64-1.33 5.47-3.78zm50-14.27l-3.05 6 1.48 13.58v.04l-.02.11-.02.11v.04l-3.42 10.38 5.03-2.93V36.48zm-3.64 4.27l3.64-7.18V23.24l-8.01 6.53 4.37 10.98zM53.77 50.82L42.6 51.95l-.35 2.69 27.68.8-1.3-12.07-14.61 7.36-.11.04-.13.04zM42.95 49l3.77-4.91-3.33 1.56-.44 3.36zm7.75-7.29h17.51l-4.39-11.04-13.11 11.04zm15.67 1.33H49.2l-5.74 7.49 10.04-1.02 12.87-6.47zM45.71 17.55l12.34 11.76 8.34-10.87-1.35-.78-19.34-.11zm13.91 11.89l4.19-.51 8.57-7-4.83-2.82-7.93 10.33zm2.32 1.07l-3.44.42-5.39 7.02 8.83-7.44zm-43.16.16L32.89 17.6l-18.19.44 4.08 12.62zm12.21 35.76l24.55 1.22-14-11.49-10.55 10.27zm10.35 14.89L29.79 68.43l-2.32 10.6 3.4 1.98 10.46.31zM30.96 67.76L42.9 81.09l13-12.11-24.95-1.22zM19.3 69.27l-2.19-13.33-9.74 1.71h-.15l-.15-.02-2.76-.67-3 2.09v4.78l7.62 4.42 10.38 1.02zm8.92.16l-5.78 6.67 3.84 2.24 1.94-8.91zm-7.62-.29l7.57-2.42-9.54-9.6 1.97 12.02zm-6.47 2.13l2.76-.91-5.23-.51 2.47 1.42zm6.51-.76l-1.02 3.95 1.66.96 6.09-7.07-6.73 2.16zm-2.21 3.27l.71-2.76-3.49 1.13 2.78 1.62zm39.27-1.13l-.62-2.96-9.47 8.8 7.35-4.27h.02l2.72-1.58zm.6-3.6l.6 2.89 5.21-3.02-5.81.13zM13.33 16.71l.6-1.82-3.2 1.87 2.61-.04zm2.32-2.82l-.53 1.62 6.25-4.93-2.16 1.24-3.55 2.07zm26.4 31.91l-14.22-1.29-3.44 6.27 16.56 3.69.4-3.18v-.02l.02-.04.68-5.42zm-2.58-14.76L28.83 43.26l13.14 1.2-2.49-13.42zm-5.87-14.8l-4.72-9.91-13.11 10.36 17.84-.44zM31.11 4.91l16.07 2.38-10.07-5.87-6 3.49zM48.42 8.8L30.25 6.13l4.68 9.84 13.49-7.18zm2.38-.95l.02.02.04.02 4.79 2.8 18.23 10.58.07.04.07.07.07.07.04.07.07.15.02.18v42.44l-.02.11-.04.09-.04.07-.07.09-.07.07-.07.04-.09.04-18.17 10.56-18.21 10.6-.09.04-.09.02-.09.02h-.15l-.09-.02-.09-.02-.07-.04-18.24-10.6-.02-.02L.33 64.78l-.07-.04-.07-.07-.07-.07-.04-.07-.07-.16-.02-.18V21.73l.02-.09.04-.09.04-.07.04-.09.07-.07.09-.04.07-.04 7.46-4.33.04-.02.04-.04 10.62-6.16 10.22-5.96.04-.02h.02L36.78.09l.09-.05.09-.02.07-.03h.09l.18.03.15.07 13.36 7.75zm-.13 1.47l-5.28 6.91 17.37.11-7.75-4.51-4.35-2.51zm-6.93 6.91l4.39-5.78-10.84 5.78h6.45zm.62 1.87l-3.8 11.53 2.72 14.62 5.19-2.4 8.81-11.47-12.91-12.29zm-5.25 11.36l-4.72-11.42-15.01 13.93 8.15 10.8 11.59-13.31zm-3.49-11.89l4.19 10.13 3.33-10.13h-7.53zm140.12 50.04c-.18-1.55-1.01-2.25-2.62-2.25-1.36 0-2.23.66-2.23 1.68 0 .57.29 1.03.88 1.33.35.18.79.34 1.91.62 1.51.39 2.17.64 2.64.97.75.54 1.13 1.34 1.13 2.37 0 2.1-1.54 3.43-3.96 3.43s-4.06-1.46-4.31-3.98h1.3c.11.82.3 1.31.69 1.75.55.62 1.43.97 2.42.97 1.52 0 2.58-.84 2.58-2.07 0-.76-.37-1.28-1.16-1.63-.41-.2-.85-.34-1.88-.61-1.45-.37-1.92-.55-2.38-.87-.78-.54-1.14-1.24-1.14-2.2 0-1.81 1.43-3.02 3.58-3.02 2.32 0 3.6 1.16 3.86 3.51h-1.3zm11.65-3.27v6.75c0 1.73-.12 2.35-.58 3.06-.69 1.04-1.88 1.61-3.35 1.61-1.58 0-2.87-.67-3.49-1.87-.35-.64-.44-1.24-.44-2.81v-6.75h1.3v6.7c0 1.28.04 1.65.26 2.12.38.87 1.22 1.34 2.38 1.34 1.23 0 2.1-.54 2.45-1.51.15-.45.18-.79.18-1.95v-6.7h1.3zm4.03 11.2h-1.3V64.33h4.44c1.43 0 1.88.08 2.44.52.75.55 1.14 1.44 1.14 2.54 0 1.34-.58 2.22-1.89 2.81 1.05.44 1.39 1.08 1.52 2.84.15 1.85.17 1.92.53 2.5h-1.51c-.14-.37-.17-.54-.24-1.65-.15-1.88-.29-2.32-.85-2.74-.4-.3-.7-.35-1.78-.35h-2.5v4.74zm2.18-5.86c1.17 0 1.63-.05 2.03-.2.79-.3 1.22-1.01 1.22-1.97 0-.84-.3-1.46-.82-1.73-.29-.13-.64-.18-1.63-.18h-2.97v4.08h2.18zm8.24-.59h4.74v1.21h-4.74v5.24h-1.3V64.33h7.03v1.26h-5.73v3.49zm6.96 6.45h-1.45l3.73-11.21h1.49l3.73 11.21h-1.45l-1.07-3.39h-3.93l-1.07 3.39zm4.65-4.57l-1.62-5.21-1.62 5.21h3.23zm11.07-3.47c-.38-1.39-1.33-2.12-2.79-2.12-2.13 0-3.37 1.7-3.37 4.62s1.22 4.5 3.35 4.5c1.74 0 2.88-1.19 3-3.11h1.26c-.23 2.77-1.8 4.37-4.28 4.37-2.88 0-4.63-2.18-4.63-5.76s1.81-5.88 4.66-5.88c2.15 0 3.72 1.31 4.05 3.38h-1.26zm4.96 1.66h5.53v1.21h-5.53v3.92h6.24v1.26h-7.53V64.34h7.38v1.26h-6.08v3.56zm16 6.38h-1.31v-9.95h-3.34v-1.26h7.93v1.26h-3.28v9.95zm6.19 0h-1.3V64.33h4.44c1.43 0 1.88.08 2.44.52.75.55 1.14 1.44 1.14 2.54 0 1.34-.58 2.22-1.89 2.81 1.05.44 1.39 1.08 1.52 2.84.15 1.85.17 1.92.53 2.5h-1.51c-.14-.37-.17-.54-.24-1.65-.15-1.88-.29-2.32-.85-2.74-.4-.3-.7-.35-1.78-.35h-2.5v4.74zm2.18-5.86c1.17 0 1.63-.05 2.03-.2.79-.3 1.22-1.01 1.22-1.97 0-.84-.3-1.46-.82-1.73-.29-.13-.64-.18-1.63-.18h-2.97v4.08h2.18zm8.25-.52h5.53v1.21h-5.53v3.92h6.24v1.26h-7.53V64.34h7.38v1.26h-6.08v3.56zm8.97 6.38h-1.45l3.73-11.21h1.49l3.73 11.21h-1.45l-1.07-3.39h-3.93l-1.07 3.39zm4.65-4.57l-1.62-5.21-1.62 5.21h3.23zm6.83 4.57h-1.31v-9.95h-3.34v-1.26h7.93v1.26h-3.28v9.95zm9.85-1.85l3.34-9.36h1.65v11.21h-1.3v-8.85l-3.14 8.85h-1.1l-3.11-8.85v8.85h-1.3V64.33h1.66l3.29 9.36zm9.08-4.53h5.53v1.21h-5.53v3.92h6.24v1.26h-7.53V64.34h7.38v1.26h-6.08v3.56zm14.98 4.2v-9.02h1.29v11.21h-1.37l-5.34-9.07v9.07h-1.3V64.34h1.39l5.32 9.02zm7.58 2.18h-1.31v-9.95h-3.34v-1.26h7.93v1.26h-3.28v9.95z" fill="#00bfda" /></svg>