<svg id="_1_logo_hor_color_pos" data-name="01_logo_hor_color_pos" xmlns="http://www.w3.org/2000/svg" width="436.422" height="30.35mm" viewBox="0 0 327.32 86.05"><path d="M327.21 45l-.02-.47-.03-.49-.04-.45-.06-.47-.07-.44-.09-.45-.12-.45-.12-.43-.14-.4-.16-.41-.19-.41-.19-.38-.23-.37-.22-.36-.27-.35-.28-.33-.28-.32-.3-.29-.35-.28-.34-.29-.37-.24-.4-.22-.4-.23-.43-.18-.44-.18-.49-.15-.48-.14-.5-.1-.53-.08-.57-.06-.57-.04-.6-.02h-.38l-.41.02-.4.04-.41.04-.4.06-.4.06-.43.1-.45.1-.44.15-.46.14-.49.18-.5.21-.51.22-.54.26-.57.27-.58.32v-9.68h-9.52v29.68h9.56V43.23l.22-.21.2-.18.22-.16.22-.15.25-.12.22-.1.22-.1.25-.1.22-.06.23-.07.23-.06.24-.04.45-.04.44-.02.47.02.42.04.4.1.35.11.32.14.27.16.26.19.2.2.18.24.16.25.12.26.1.27.09.28.04.31.03.3v13h9.59V45zM290.1 57.95h1.01l.98-.04.98-.06.95-.08.98-.1.92-.14.94-.17.92-.18v-5.41l-.59.08-.58.08-.59.06-.56.08-.59.04-.56.04-.59.03-.58.02-.53-.02-.51-.03-.48-.04-.48-.06-.47-.08-.44-.08-.45-.1-.43-.12-.4-.13-.38-.14-.36-.16-.37-.16-.35-.19-.32-.18-.32-.2-.28-.21-.29-.22-.26-.22-.24-.25-.22-.24-.2-.25-.21-.26-.18-.26-.14-.27-.14-.28-.12-.29-.11-.28-.07-.29-.09-.3-.04-.29-.02-.3-.01-.31v-.34l.01-.37.05-.35.06-.34.06-.33.08-.3.1-.31.12-.3.12-.29.14-.26.18-.27.19-.26.19-.24.23-.23.24-.22.26-.21.28-.2.31-.18.32-.18.35-.17.36-.14.39-.14.42-.12.43-.11.46-.1.49-.08.5-.08.52-.06.57-.04.59-.04.6-.02h1.17l.53.02.52.04.53.06.54.06.55.08.55.1.54.08v-5.98l-.92-.18-.94-.14-.92-.12-.94-.1-.92-.07-.95-.06-.94-.02-.92-.02-1.11.02-1.08.04-1.03.06-.99.11-.92.12-.91.14-.85.16-.81.21-.77.2-.73.24-.7.29-.65.28-.61.33-.59.32-.54.37-.5.41-.47.4-.42.43-.41.47-.36.47-.33.51-.3.52-.26.55-.24.57-.21.59-.17.61-.15.63-.12.68-.1.67-.06.69-.04.71v1.44l.04.7.08.67.08.65.14.63.14.61.21.59.2.57.24.55.29.51.29.5.35.49.37.45.4.45.45.4.45.39.51.37.55.34.58.33.61.3.65.29.66.24.73.25.75.2.81.18.82.14.87.15.92.12.92.08.99.06 1.03.04h1.07zm-19.47-14.13l-.02-.63-.06-.61-.08-.59-.1-.57-.14-.57-.15-.53-.18-.53-.2-.49-.22-.49-.24-.47-.26-.43-.31-.43-.32-.41-.34-.39-.36-.37-.41-.35-.43-.33-.44-.29-.46-.28-.49-.26-.52-.24-.55-.2-.57-.2-.6-.16-.63-.16-.64-.12-.67-.1-.7-.08-.73-.06-.74-.04h-1.64l-.85.04-.8.06-.79.1-.75.12-.7.14-.69.16-.67.2-.63.22-.59.24-.58.26-.53.31-.52.31-.49.35-.44.37-.42.39-.41.41-.38.43-.34.45-.32.47-.28.51-.27.51-.24.53-.22.57-.18.57-.16.61-.12.61-.12.63-.08.65-.06.67-.05.69-.02.71.02.77.06.75.08.71.1.69.14.67.18.65.21.61.24.59.27.57.3.53.34.51.37.49.38.47.42.43.44.41.49.41.51.35.54.35.57.31.58.31.63.26.65.24.68.2.71.2.73.16.77.14.79.14.81.1.84.06.87.06.89.04h2.06l1.16-.04 1.13-.06 1.15-.08 1.13-.12 1.11-.16 1.09-.18 1.09-.24v-5.72l-.97.16-.96.12-.95.12-.95.08-.95.06-.93.04-.93.02h-1.84l-.49-.04-.51-.04-.52-.08-.53-.1-.53-.14-.52-.18-.24-.1-.26-.12-.24-.12-.24-.14-.22-.16-.22-.16-.22-.18-.2-.2-.21-.2-.18-.24-.16-.24-.17-.26-.14-.28-.15-.31-.11-.33-.11-.35h15.85l.04-.45.06-.45.02-.43.04-.43.02-.43.02-.43.02-.43v-.43l-.02-.63zm-16.22-.28l.06-.49.08-.47.1-.45.11-.41.1-.39.14-.35.15-.32.18-.29.12-.12.11-.12.11-.12.15-.1.14-.1.15-.1.18-.08.16-.06.2-.08.2-.04.22-.06.23-.04.51-.04.56-.02h.28l.27.02.24.02.24.04.2.04.22.06.18.06.18.06.18.08.16.1.14.08.15.12.14.1.12.12.1.14.11.14.18.28.16.33.12.35.1.39.08.39.06.43.04.43.04.47h-7.63zm-14.67-8.24l.53-.03.48-.04.48-.04.47-.06.44-.08.43-.13.42-.1.39-.15.38-.14.38-.19.35-.17.34-.21.32-.2.31-.23.28-.23.29-.25.24-.27.24-.25.22-.29.22-.29.19-.3.18-.31.14-.31.16-.31.12-.31.1-.34.11-.33.06-.35.06-.34.04-.35.01-.33.03-.36h-21.9l-.47.02-.47.07-.46.06-.43.08-.44.1-.41.11-.39.14-.39.15-.36.17-.35.18-.34.19-.33.21-.3.21-.3.25-.28.23-.27.27-.24.27-.22.27-.22.29-.19.29-.18.31-.18.31-.14.32-.12.33-.13.33-.07.34-.09.35-.06.35-.04.36-.02.35v.38h8.49v22.39h10.69V38.96l-6.18-3.66h8.38zm-21.85 9.04l-.06-.73-.08-.69-.1-.67-.12-.63-.16-.63-.16-.59-.21-.57-.24-.55-.24-.53-.28-.49-.3-.49-.34-.45-.37-.43-.41-.41-.42-.37-.47-.35-.48-.35-.51-.28-.54-.29-.59-.26-.63-.22-.64-.2-.67-.18-.73-.16-.75-.12-.79-.12-.83-.08-.85-.06-.89-.04h-1.88l-.89.04-.85.06-.83.08-.79.12-.77.12-.71.16-.68.18-.65.2-.63.22-.58.26-.54.29-.53.28-.51.35-.47.35-.42.37-.41.41-.37.43-.34.45-.33.49-.28.49-.26.53-.22.55-.2.57-.18.59-.16.63-.12.63-.12.67-.08.69-.05.73-.04.73-.02.77.02.77.02.73.06.73.08.69.1.65.15.65.14.61.18.59.2.55.22.55.27.51.28.49.32.47.32.43.38.41.39.41.42.35.47.35.48.33.53.29.54.26.58.24.63.22.65.18.67.18.73.14.75.12.78.1.83.08.85.06.9.04h1.86l.91-.04.87-.06.83-.08.79-.1.74-.12.73-.14.69-.16.65-.2.62-.22.57-.24.57-.26.53-.29.48-.31.44-.35.44-.37.39-.39.38-.41.32-.45.32-.45.28-.49.24-.51.24-.55.21-.55.16-.59.16-.63.12-.63.1-.67.08-.69.06-.71.04-.75v-1.55l-.04-.73zm-9.92 2.83l-.02.49-.02.53-.02.53-.05.26-.04.26-.04.26-.08.24-.06.26-.1.24-.1.26-.12.24-.12.24-.16.22-.18.2-.2.2-.22.18-.24.16-.28.14-.3.12-.33.1-.36.08-.41.04-.41.02-.44-.02-.38-.04-.38-.08-.32-.1-.32-.12-.28-.14-.24-.16-.24-.18-.2-.2-.18-.2-.16-.22-.15-.24-.11-.24-.11-.26-.08-.24-.08-.26-.06-.24-.06-.26-.04-.26-.02-.26-.05-.53v-4.68l.05-.55.02-.24.04-.26.06-.26.06-.24.08-.26.08-.26.11-.24.11-.24.15-.24.16-.22.18-.2.2-.2.24-.18.24-.16.28-.16.32-.12.32-.1.38-.06.38-.04.44-.02.41.02.41.04.36.06.33.1.3.12.28.16.24.16.22.18.2.2.18.2.16.22.12.24.12.24.1.24.1.26.06.26.08.24.04.26.04.26.05.24.02.55.02.53.02.49-.02.47v1.71l.02.47zm-22.86-6.55l.43.02.42.02.42.06.45.09.43.08.42.08.43.1.42.1v-7.2l-.85-.18-.83-.14-.83-.11-.82-.06-.84-.04-.84-.04h-2.39l-.6.04-.63.08-.58.08-.59.13-.59.14-.54.16-.55.19-.54.22-.51.22-.5.25-.49.28-.48.29-.45.32-.43.33-.42.36-.38.37-.38.39-.35.38-.32.43-.33.43-.28.44-.26.47-.22.47-.23.49-.18.51-.16.5-.12.51-.1.53-.08.55-.04.55-.02.55v13.63h9.84V46.11l.02-.53.04-.5.08-.51.1-.51.08-.22.08-.25.08-.22.11-.23.11-.22.12-.2.15-.21.14-.2.16-.18.18-.19.19-.16.19-.16.23-.14.24-.15.25-.12.26-.12.26-.1.3-.1.31-.08.34-.07.34-.04.34-.04.39-.02.4-.02zm-21.99 0l.42.02.42.02.45.06.43.09.42.08.44.08.43.1.42.1v-7.2l-.85-.18-.82-.14-.85-.11-.83-.06-.83-.04-.85-.04h-2.36l-.63.04-.61.08-.6.08-.59.13-.57.14-.56.16-.55.19-.52.22-.52.22-.51.25-.48.28-.47.29-.44.32-.45.33-.4.36-.41.37-.36.39-.37.38-.32.43-.3.43-.29.44-.26.47-.24.47-.2.49-.18.51-.17.5-.13.51-.1.53-.06.55-.07.55v14.18h9.83V46.11l.01-.53.04-.5.08-.51.13-.51.06-.22.07-.25.11-.22.1-.23.1-.22.14-.2.12-.21.16-.2.16-.18.19-.19.18-.16.2-.16.22-.14.22-.15.25-.12.26-.12.28-.1.28-.1.33-.08.32-.07.35-.04.36-.04.38-.02.39-.02zm-18.42 4.46l-.02-.73-.06-.73-.08-.69-.1-.67-.12-.63-.16-.63-.18-.59-.2-.57-.22-.55-.27-.53-.28-.49-.3-.49-.34-.45-.37-.43-.38-.41-.42-.37-.47-.35-.48-.35-.53-.28-.54-.29-.59-.26-.6-.22-.64-.2-.69-.18-.7-.16-.75-.12-.79-.12-.83-.08-.85-.06-.91-.04h-1.86l-.89.04-.86.06-.83.08-.79.12-.74.12-.73.16-.69.18-.65.2-.6.22-.58.26-.57.29-.53.28-.48.35-.47.35-.42.37-.41.41-.38.43-.34.45-.31.49-.28.49-.26.53-.24.55-.2.57-.18.59-.14.63-.15.63-.1.67-.08.69-.05.73-.05.73v1.55l.05.73.05.73.08.69.1.65.12.65.16.61.16.59.22.55.22.55.27.51.28.49.3.47.34.43.37.41.4.41.43.35.47.35.48.33.51.29.57.26.58.24.61.22.64.18.69.18.73.14.74.12.79.1.81.08.87.06.89.04h1.88l.89-.04.87-.06.83-.08.79-.1.77-.12.71-.14.68-.16.67-.2.6-.22.58-.24.55-.26.52-.29.48-.31.47-.35.43-.37.4-.39.37-.41.34-.45.3-.45.28-.49.27-.51.22-.55.2-.55.18-.59.14-.63.15-.63.1-.67.08-.69.06-.71.02-.75.02-.77-.02-.77zm-9.96-.08v.45l-.02.41.02.41v.92l-.02.49v.53l-.04.53-.02.26-.04.26-.06.26-.06.24-.08.26-.08.24-.1.26-.12.24-.14.24-.17.22-.16.2-.2.2-.24.18-.24.16-.27.14-.3.12-.34.1-.37.08-.38.04-.42.02-.43-.02-.41-.04-.36-.08-.34-.1-.31-.12-.28-.14-.26-.16-.22-.18-.2-.2-.18-.2-.16-.22-.15-.24-.11-.24-.12-.26-.08-.24-.06-.26-.08-.24-.05-.26-.04-.26-.04-.26-.02-.53-.02-.53v-3.62l.02-.53.02-.55.04-.24.04-.26.05-.26.08-.24.06-.26.08-.26.12-.24.11-.24.15-.24.16-.22.18-.2.2-.2.22-.18.26-.16.28-.16.31-.12.34-.1.36-.06.41-.04.43-.02.42.02.38.04.37.06.34.1.3.12.27.16.24.16.24.18.2.2.16.2.17.22.14.24.12.24.1.24.08.26.08.26.06.24.06.26.04.26.02.24.04.55v.53l.02.49v.47zm-29.07 13.03l1.01-.02 1.01-.04.99-.08 1.01-.14.99-.16.99-.19.49-.12.48-.12.51-.14.46-.15v-6.38l-.77.2-.77.18-.78.15-.77.12-.77.08-.77.06-.76.04-.75.02-.65-.02-.62-.02-.57-.06-.54-.06-.51-.1-.47-.12-.42-.13-.4-.14-.37-.18-.35-.19-.29-.18-.29-.22-.24-.25-.22-.24-.23-.24-.18-.29-.16-.28-.12-.31-.14-.3-.1-.33-.08-.35-.08-.32-.06-.37-.05-.36-.08-.76-.02-.77-.01-.81v-1.63l.01-.77.02-.75.08-.74.05-.34.06-.35.06-.32.1-.33.1-.3.12-.31.14-.28.14-.27.19-.26.2-.25.22-.24.24-.23.29-.2.28-.2.34-.16.34-.17.38-.14.43-.12.47-.12.48-.09.53-.06.54-.06.61-.02.65-.02.77.02.78.04.79.06.79.08.8.15.79.14.81.18.79.23v-6.59l-.38-.17-.41-.16-.42-.14-.45-.12-.44-.15-.45-.1-.44-.1-.47-.1-.46-.08-.44-.06-.47-.06-.46-.07-.45-.04-.44-.02-.45-.02h-.42l-1.12.02-1.07.04-1.01.09-.98.1-.98.14-.9.16-.9.21-.82.22-.81.26-.78.29-.73.32-.71.35-.67.37-.63.4-.58.43-.57.47-.52.49-.49.5-.44.55-.43.57-.38.61-.36.63-.31.66-.28.67-.26.71-.21.73-.17.77-.16.8-.11.81-.08.83-.06.88-.02.89.02.88.04.83.08.84.1.79.12.77.17.76.19.73.23.71.26.67.29.65.32.63.34.59.39.57.42.55.44.53.49.49.52.47.57.44.59.41.63.39.66.34.69.33.74.28.77.27.81.24.85.2.89.17.93.16.97.1.99.08 1.05.04 1.09.02zM11.35 18.07l-2.96.04-7.07 4.11v1.82l10.02-5.98zM8.99 38.74l-.55 3.6 17.66.76-7.77-10.33-9.34 5.98zm7.75-6.56l-6.56-1.33-.93 6.13 7.48-4.8zM13.8 19.51l-3.31 10.04 7 1.44L13.8 19.5zM1.32 29.38h7.84l3.47-10.53L1.32 25.6v3.78zm4.61 12.93l-4.61-4.07v4.11l4.61-.04zm-4.61-5.84l5.87 5.2 1.66-10.96H1.32v5.76zm39.21 46.15l-7.24-.22 3.82 2.22 3.42-2zM29.45 66.09l10.44-10.16-20.62-.09 10.18 10.24zm28.04 1.42l11.55-10.76-25.59-.76L57.49 67.5zm8.72.02l3.02-9.16-9.98 9.31 6.95-.16zM4.94 55.73l1.17.29-.93-2.04-.24 1.76zm30.44-1.16l-11.85-2.64-3.75 2.58 15.61.07zM8.14 43.64l-2.6 7.98 1.99 4.33 15.01-11.69-14.39-.62zM1.32 57.42l2.27-1.56.6-4.31v-.04l.02-.07 2.54-7.82-5.43.07v13.73zm21.57-6.67l3.49-6.33-1.79-.07L9.78 55.86l7.64-1.33 5.47-3.78zm50-14.27l-3.05 6 1.48 13.58v.04l-.02.11-.02.11v.04l-3.42 10.38 5.03-2.93V36.48zm-3.64 4.27l3.64-7.18V23.24l-8.01 6.53 4.37 10.98zM53.77 50.82L42.6 51.95l-.35 2.69 27.68.8-1.3-12.07-14.61 7.36-.11.04-.13.04zM42.95 49l3.77-4.91-3.33 1.56-.44 3.36zm7.75-7.29h17.51l-4.39-11.04-13.11 11.04zm15.67 1.33H49.2l-5.74 7.49 10.04-1.02 12.87-6.47zM45.71 17.55l12.34 11.76 8.34-10.87-1.35-.78-19.34-.11zm13.91 11.89l4.19-.51 8.57-7-4.83-2.82-7.93 10.33zm2.32 1.07l-3.44.42-5.39 7.02 8.83-7.44zm-43.16.16L32.89 17.6l-18.19.44 4.08 12.62zm12.21 35.76l24.55 1.22-14-11.49-10.55 10.27zm10.35 14.89L29.79 68.43l-2.32 10.6 3.4 1.98 10.46.31zM30.96 67.76L42.9 81.09l13-12.11-24.95-1.22zM19.3 69.27l-2.19-13.33-9.74 1.71h-.15l-.15-.02-2.76-.67-3 2.09v4.78l7.62 4.42 10.38 1.02zm8.92.16l-5.78 6.67 3.84 2.24 1.94-8.91zm-7.62-.29l7.57-2.42-9.54-9.6 1.97 12.02zm-6.47 2.13l2.76-.91-5.23-.51 2.47 1.42zm6.51-.76l-1.02 3.95 1.66.96 6.09-7.07-6.73 2.16zm-2.21 3.27l.71-2.76-3.49 1.13 2.78 1.62zm39.27-1.13l-.62-2.96-9.47 8.8 7.35-4.27h.02l2.72-1.58zm.6-3.6l.6 2.89 5.21-3.02-5.81.13zM13.33 16.71l.6-1.82-3.2 1.87 2.61-.04zm2.32-2.82l-.53 1.62 6.25-4.93-2.16 1.24-3.55 2.07zm26.4 31.91l-14.22-1.29-3.44 6.27 16.56 3.69.4-3.18v-.02l.02-.04.68-5.42zm-2.58-14.76L28.83 43.26l13.14 1.2-2.49-13.42zm-5.87-14.8l-4.72-9.91-13.11 10.36 17.84-.44zM31.11 4.91l16.07 2.38-10.07-5.87-6 3.49zM48.42 8.8L30.25 6.13l4.68 9.84 13.49-7.18zm2.38-.95l.02.02.04.02 4.79 2.8 18.23 10.58.07.04.07.07.07.07.04.07.07.15.02.18v42.44l-.02.11-.04.09-.04.07-.07.09-.07.07-.07.04-.09.04-18.17 10.56-18.21 10.6-.09.04-.09.02-.09.02h-.15l-.09-.02-.09-.02-.07-.04-18.24-10.6-.02-.02L.33 64.78l-.07-.04-.07-.07-.07-.07-.04-.07-.07-.16-.02-.18V21.73l.02-.09.04-.09.04-.07.04-.09.07-.07.09-.04.07-.04 7.46-4.33.04-.02.04-.04 10.62-6.16 10.22-5.96.04-.02h.02L36.78.09l.09-.05.09-.02.07-.03h.09l.18.03.15.07 13.36 7.75zm-.13 1.47l-5.28 6.91 17.37.11-7.75-4.51-4.35-2.51zm-6.93 6.91l4.39-5.78-10.84 5.78h6.45zm.62 1.87l-3.8 11.53 2.72 14.62 5.19-2.4 8.81-11.47-12.91-12.29zm-5.25 11.36l-4.72-11.42-15.01 13.93 8.15 10.8 11.59-13.31zm-3.49-11.89l4.19 10.13 3.33-10.13h-7.53zm140.12 50.04c-.18-1.55-1.01-2.25-2.62-2.25-1.36 0-2.23.66-2.23 1.68 0 .57.29 1.03.88 1.33.35.18.79.34 1.91.62 1.51.39 2.17.64 2.64.97.75.54 1.13 1.34 1.13 2.37 0 2.1-1.54 3.43-3.96 3.43s-4.06-1.46-4.31-3.98h1.3c.11.82.3 1.31.69 1.75.55.62 1.43.97 2.42.97 1.52 0 2.58-.84 2.58-2.07 0-.76-.37-1.28-1.16-1.63-.41-.2-.85-.34-1.88-.61-1.45-.37-1.92-.55-2.38-.87-.78-.54-1.14-1.24-1.14-2.2 0-1.81 1.43-3.02 3.58-3.02 2.32 0 3.6 1.16 3.86 3.51h-1.3zm11.65-3.27v6.75c0 1.73-.12 2.35-.58 3.06-.69 1.04-1.88 1.61-3.35 1.61-1.58 0-2.87-.67-3.49-1.87-.35-.64-.44-1.24-.44-2.81v-6.75h1.3v6.7c0 1.28.04 1.65.26 2.12.38.87 1.22 1.34 2.38 1.34 1.23 0 2.1-.54 2.45-1.51.15-.45.18-.79.18-1.95v-6.7h1.3zm4.03 11.2h-1.3V64.33h4.44c1.43 0 1.88.08 2.44.52.75.55 1.14 1.44 1.14 2.54 0 1.34-.58 2.22-1.89 2.81 1.05.44 1.39 1.08 1.52 2.84.15 1.85.17 1.92.53 2.5h-1.51c-.14-.37-.17-.54-.24-1.65-.15-1.88-.29-2.32-.85-2.74-.4-.3-.7-.35-1.78-.35h-2.5v4.74zm2.18-5.86c1.17 0 1.63-.05 2.03-.2.79-.3 1.22-1.01 1.22-1.97 0-.84-.3-1.46-.82-1.73-.29-.13-.64-.18-1.63-.18h-2.97v4.08h2.18zm8.24-.59h4.74v1.21h-4.74v5.24h-1.3V64.33h7.03v1.26h-5.73v3.49zm6.96 6.45h-1.45l3.73-11.21h1.49l3.73 11.21h-1.45l-1.07-3.39h-3.93l-1.07 3.39zm4.65-4.57l-1.62-5.21-1.62 5.21h3.23zm11.07-3.47c-.38-1.39-1.33-2.12-2.79-2.12-2.13 0-3.37 1.7-3.37 4.62s1.22 4.5 3.35 4.5c1.74 0 2.88-1.19 3-3.11h1.26c-.23 2.77-1.8 4.37-4.28 4.37-2.88 0-4.63-2.18-4.63-5.76s1.81-5.88 4.66-5.88c2.15 0 3.72 1.31 4.05 3.38h-1.26zm4.96 1.66h5.53v1.21h-5.53v3.92h6.24v1.26h-7.53V64.34h7.38v1.26h-6.08v3.56zm16 6.38h-1.31v-9.95h-3.34v-1.26h7.93v1.26h-3.28v9.95zm6.19 0h-1.3V64.33h4.44c1.43 0 1.88.08 2.44.52.75.55 1.14 1.44 1.14 2.54 0 1.34-.58 2.22-1.89 2.81 1.05.44 1.39 1.08 1.52 2.84.15 1.85.17 1.92.53 2.5h-1.51c-.14-.37-.17-.54-.24-1.65-.15-1.88-.29-2.32-.85-2.74-.4-.3-.7-.35-1.78-.35h-2.5v4.74zm2.18-5.86c1.17 0 1.63-.05 2.03-.2.79-.3 1.22-1.01 1.22-1.97 0-.84-.3-1.46-.82-1.73-.29-.13-.64-.18-1.63-.18h-2.97v4.08h2.18zm8.25-.52h5.53v1.21h-5.53v3.92h6.24v1.26h-7.53V64.34h7.38v1.26h-6.08v3.56zm8.97 6.38h-1.45l3.73-11.21h1.49l3.73 11.21h-1.45l-1.07-3.39h-3.93l-1.07 3.39zm4.65-4.57l-1.62-5.21-1.62 5.21h3.23zm6.83 4.57h-1.31v-9.95h-3.34v-1.26h7.93v1.26h-3.28v9.95zm9.85-1.85l3.34-9.36h1.65v11.21h-1.3v-8.85l-3.14 8.85h-1.1l-3.11-8.85v8.85h-1.3V64.33h1.66l3.29 9.36zm9.08-4.53h5.53v1.21h-5.53v3.92h6.24v1.26h-7.53V64.34h7.38v1.26h-6.08v3.56zm14.98 4.2v-9.02h1.29v11.21h-1.37l-5.34-9.07v9.07h-1.3V64.34h1.39l5.32 9.02zm7.58 2.18h-1.31v-9.95h-3.34v-1.26h7.93v1.26h-3.28v9.95z" fill="#fff"/></svg>